<svg width="53" height="46" viewBox="0 0 53 46" fill="none" xmlns="http://www.w3.org/2000/svg">
<path id="AVIAN LOGO 1 (Traced)" fill-rule="evenodd" clip-rule="evenodd" d="M25.5003 4.03617L22.4974 8.19828L22.1788 8.02387C21.6434 7.73094 20.625 7.45243 19.9198 7.40631C16.5956 7.18864 13.7507 9.80032 13.7248 13.0935C13.7179 13.9749 13.8182 14.5516 14.103 15.2679C14.3884 15.9856 14.7573 16.571 15.2636 17.1095L15.7149 17.5894L9.38879 26.3467C5.9095 31.1632 3.05149 35.137 3.03768 35.1775C3.02144 35.2249 4.34072 35.2511 6.74307 35.2511C8.79491 35.2511 13.6896 35.2736 17.6201 35.3011L24.7664 35.351V31.8917V28.4324L24.9363 28.391C26.2663 28.0669 30.3551 28.0642 31.9569 28.3862L32.1645 28.428V31.9053V35.3825L42.3592 35.4387C47.9662 35.4696 52.5664 35.4822 52.5817 35.4669C52.601 35.4475 31.6029 4.40661 28.6165 0.0396023C28.5072 -0.120158 28.3968 0.0215005 25.5003 4.03617ZM23.366 8.98116C24.4536 10.0797 24.9704 11.2293 25.0474 12.7214C25.1033 13.8043 24.9482 14.5527 24.4643 15.5346C23.869 16.7427 23.0406 17.5783 21.86 18.1619C20.9442 18.6145 20.3279 18.7547 19.2556 18.7544C18.2216 18.7542 17.5017 18.5811 16.6065 18.1178C15.6037 17.5987 15.3136 18.1981 19.1229 12.9189C20.9605 10.3721 22.5121 8.28804 22.571 8.28744C22.63 8.28683 22.9876 8.59899 23.366 8.98116ZM28.9033 19.2676C28.9531 19.3171 28.9939 19.503 28.9939 19.6807V20.0037H28.541H28.088V19.6807C28.088 19.287 28.1866 19.1774 28.541 19.1774C28.6904 19.1774 28.8535 19.218 28.9033 19.2676ZM29.0694 21.6641C29.0694 23.0789 29.0566 23.2446 28.95 23.2039C28.8843 23.1788 28.6295 23.1583 28.3838 23.1583H27.937V21.6686C27.937 20.8493 27.9597 20.1564 27.9874 20.1289C28.015 20.1013 28.2698 20.0788 28.5536 20.0788H29.0694V21.6641ZM30.2961 23.43L30.5792 23.4752V23.8613V24.2474H28.5032H26.4272V23.8545C26.4272 23.433 26.4044 23.4545 26.9557 23.3535C27.2006 23.3087 29.9274 23.371 30.2961 23.43ZM30.2289 24.4078L30.5792 24.4556V26.287V28.1185L30.4094 28.0796C29.9425 27.9728 28.3507 27.9088 27.6351 27.9682C27.1991 28.0044 26.7321 28.0354 26.5971 28.0372L26.3517 28.0405V26.2421V24.4438L26.6726 24.4151C27.2429 24.364 29.8681 24.3587 30.2289 24.4078ZM1.59625 42.0309C0.831154 43.9409 0.159059 45.6154 0.102592 45.7519L0 46L0.394742 45.9772L0.789559 45.9544L0.953223 45.5413C1.04328 45.3141 1.24409 44.7986 1.39945 44.3959L1.68186 43.6635H3.36115H5.04045L5.48599 44.8267L5.93147 45.9899L6.33406 45.9909C6.55555 45.9915 6.7254 45.9631 6.71151 45.9279C6.6977 45.8927 6.04093 44.2197 5.25205 42.2101L3.81772 38.5563L3.40252 38.5571L2.98732 38.558L1.59625 42.0309ZM12.5998 39.1341C12.7181 39.4565 13.3373 41.1314 13.9759 42.8561L15.1369 45.992H15.5616H15.9863L17.33 42.3679C18.069 40.3746 18.69 38.6996 18.7101 38.6456C18.7379 38.571 18.6517 38.553 18.3503 38.5705L17.9541 38.5936L16.7742 41.8734C16.1252 43.6773 15.5817 45.1407 15.5663 45.1253C15.5509 45.11 15.0072 43.6341 14.3581 41.8456L13.1781 38.5936L12.7814 38.5708L12.3846 38.5481L12.5998 39.1341ZM25.6723 42.274V45.992H26.0498H26.4272V42.274V38.556H26.0498H25.6723V42.274ZM34.9632 42.0309C34.1981 43.9409 33.526 45.6154 33.4695 45.7519L33.3669 46L33.7617 45.9772L34.1565 45.9544L34.3202 45.5413C34.4102 45.3141 34.611 44.7986 34.7664 44.3959L35.0488 43.6635H36.7281H38.4074L38.8529 44.8267L39.2984 45.9899L39.701 45.9909C39.9225 45.9915 40.0924 45.9631 40.0785 45.9279C40.0646 45.8927 39.4079 44.2197 38.619 42.2101L37.1847 38.5563L36.7695 38.5571L36.3543 38.558L34.9632 42.0309ZM47.1117 42.274V45.992H47.4506H47.7895L47.8092 42.8632L47.8289 39.7344L49.9804 42.8615L52.1319 45.9887L52.5659 45.9903L53 45.992V42.274V38.556H52.6234H52.2468L52.227 41.6767L52.2073 44.7974L50.0583 41.6767L47.9093 38.556H47.5105H47.1117V42.274ZM4.1135 41.2468C4.47744 42.2104 4.76 43.014 4.74143 43.0325C4.72286 43.0509 4.07794 43.0569 3.30831 43.0456L1.90901 43.0251L2.1921 42.3115C2.34784 41.9191 2.67192 41.0977 2.91229 40.4862C3.15272 39.8747 3.37248 39.4015 3.40064 39.4346C3.42879 39.4678 3.74955 40.2833 4.1135 41.2468ZM37.4804 41.2468C37.8444 42.2104 38.1269 43.014 38.1084 43.0325C38.0898 43.0509 37.4449 43.0569 36.6753 43.0456L35.276 43.0251L35.5591 42.3115C35.7148 41.9191 36.0389 41.0977 36.2792 40.4862C36.5197 39.8747 36.7394 39.4015 36.7676 39.4346C36.7957 39.4678 37.1165 40.2833 37.4804 41.2468Z" fill="#EF6D58"/>
</svg>
