<svg width="52" height="50" viewBox="0 0 52 50" fill="none" xmlns="http://www.w3.org/2000/svg">
<path d="M51.1675 45.2506C51.1383 45.2371 48.3178 44.0179 48.8371 41.8804C49.3863 39.6203 48.5245 35.9308 46.1705 33.9129C44.8372 32.7707 42.5301 31.7254 38.9894 32.9648L34.7316 28.7047C34.7103 28.649 34.7002 28.5907 34.6703 28.5383C34.1768 27.6474 33.6642 26.7762 33.1505 25.9219L48.4772 10.5961C49.1917 9.8805 49.585 8.93011 49.585 7.91946C49.585 6.90776 49.1898 5.95847 48.4761 5.24511L44.695 1.46181C43.2645 0.0335629 40.771 0.0335629 39.3428 1.46181L35.1987 5.6071C35.1975 5.6071 35.1975 5.6071 35.1953 5.60822C35.1953 5.60934 35.1953 5.61047 35.1931 5.61047L25.4321 15.3724C20.7084 9.95331 15.6836 5.94451 10.0786 3.15252C6.20177 1.22627 4.71973 1.67192 4.26317 1.95418C4.12558 2.03905 4.0108 2.1542 3.92705 2.2903C3.6444 2.74831 3.1976 4.23225 5.12721 8.10714C7.78137 13.4402 12.0059 18.7219 17.349 23.4549L3.96907 36.8348C3.88195 36.9197 3.82063 37.0248 3.77016 37.1362C3.75783 37.162 3.74661 37.1874 3.73539 37.2143C3.72754 37.2379 3.71296 37.2588 3.70623 37.2835L0.719274 47.9566C0.619817 48.3129 0.719274 48.6958 0.981742 48.9571C1.17616 49.1526 1.4375 49.2584 1.70633 49.2584C1.79793 49.2584 1.89065 49.2461 1.98225 49.2203L12.6554 46.2322C12.6789 46.2243 12.6998 46.2098 12.7245 46.2042C12.7514 46.1929 12.7757 46.1817 12.8038 46.1694C12.9145 46.1193 13.0169 46.0554 13.104 45.9705L27.8919 31.1817C28.7552 31.7133 29.4296 32.0984 30.3853 32.6301L34.9325 37.1795C34.7572 38.3812 34.7302 41.1101 37.0708 44.5061C39.0116 47.3278 42.2188 48.5542 45.4087 48.5542C47.4856 48.5542 49.554 48.0349 51.26 47.0946C51.604 46.9046 51.8104 46.5363 51.7895 46.143C51.77 45.7501 51.5277 45.4042 51.1662 45.2509L51.1675 45.2506ZM36.0485 35.393L32.4584 31.8007L33.6923 30.5669L37.2835 34.1603L36.0485 35.393ZM12.3793 43.7949L9.98758 41.402L39.7633 11.6262L42.1562 14.0202L12.3793 43.7949ZM6.14369 37.5593L35.9195 7.7835L38.3135 10.1775L8.53769 39.9523L6.14369 37.5593ZM40.7913 2.91164C41.4467 2.25735 42.5882 2.25735 43.2459 2.91164L47.027 6.69494C47.3541 7.02096 47.534 7.45654 47.534 7.9198C47.534 8.38304 47.3541 8.81973 47.0259 9.14686L43.6045 12.5694L40.4878 9.45161C40.4867 9.45161 40.4867 9.45198 40.4867 9.45086L37.3689 6.33306L40.7913 2.91164ZM6.963 7.19409C6.07428 5.41065 5.80955 4.34095 5.7415 3.77039C6.31204 3.83844 7.3806 4.10202 9.1652 4.9896C14.5611 7.67525 19.4095 11.558 23.9789 16.8256L18.8009 22.0036C13.6073 17.4254 9.51704 12.325 6.963 7.19467V7.19409ZM5.2099 39.5235L10.4159 44.7295L3.18459 46.753L5.2099 39.5235ZM31.6491 27.4233C31.9351 27.9034 32.2219 28.3715 32.5011 28.8616L30.8318 30.5299C30.3158 30.2394 29.8713 29.9818 29.3845 29.689L31.6491 27.4233ZM38.7578 43.3406C36.6438 40.2699 36.8494 38.0318 36.9766 37.3641L39.2981 35.0426C41.584 34.1438 43.4485 34.281 44.8346 35.4715C46.6737 37.047 47.1896 39.976 46.8434 41.3975C46.3544 43.4199 47.3841 44.9966 48.5843 46.0217C45.1831 47.1149 40.9354 46.5029 38.7582 43.3405L38.7578 43.3406Z" fill="white"/>
</svg>
