<svg width="18" height="18" viewBox="0 0 18 18" fill="none" xmlns="http://www.w3.org/2000/svg">
<path fill-rule="evenodd" clip-rule="evenodd" d="M9 0C4.03145 0 0 4.03145 0 9C0 13.9686 4.03145 18 9 18C13.9588 18 18 13.9686 18 9C18 4.03145 13.9588 0 9 0ZM14.9447 4.14859C16.0184 5.45662 16.6627 7.12581 16.6822 8.93166C16.4284 8.88289 13.8904 8.3655 11.333 8.68764C11.2744 8.56074 11.2256 8.42406 11.167 8.28743C11.0108 7.91651 10.8352 7.53581 10.6594 7.17463C13.4902 6.0228 14.7787 4.36334 14.9447 4.14859ZM9 1.32755C10.9523 1.32755 12.7386 2.05966 14.0955 3.26031C13.9588 3.45553 12.7972 5.00759 10.064 6.03253C8.80476 3.71909 7.40891 1.82538 7.19415 1.53254C7.77004 1.39588 8.37529 1.32755 9 1.32755ZM5.72996 2.04989C5.93494 2.32321 7.30153 4.22668 8.58026 6.49131C4.98807 7.44795 1.81562 7.42843 1.47397 7.42843C1.9718 5.04664 3.58243 3.06507 5.72996 2.04989ZM1.30803 9.00979C1.30803 8.93166 1.30803 8.85358 1.30803 8.77551C1.63991 8.78524 5.36876 8.83406 9.20498 7.68223C9.42953 8.1117 9.6345 8.55096 9.82974 8.99021C9.73209 9.01952 9.62471 9.04883 9.52712 9.07807C5.56399 10.3568 3.45553 13.8514 3.27982 14.1442C2.05965 12.7874 1.30803 10.9816 1.30803 9.00979ZM9 16.692C7.2234 16.692 5.58352 16.0868 4.28525 15.0716C4.42191 14.7885 5.98371 11.782 10.3178 10.269C10.3373 10.2592 10.3471 10.2592 10.3666 10.2495C11.4501 13.051 11.8894 15.4034 12.0065 16.077C11.0792 16.4772 10.064 16.692 9 16.692ZM13.2852 15.3742C13.2072 14.9056 12.7972 12.6605 11.7917 9.89803C14.2028 9.51733 16.3113 10.1421 16.5749 10.23C16.243 12.3677 15.013 14.2126 13.2852 15.3742Z" fill="#EF6D58"/>
</svg>
