<svg width="33" height="32" viewBox="0 0 33 32" fill="none" xmlns="http://www.w3.org/2000/svg">
<path d="M32.2198 12.9613C32.2023 12.8674 32.12 12.8 32.0245 12.8H16.7C16.5895 12.8 16.5 12.8895 16.5 13V19C16.5 19.1105 16.5895 19.2 16.7 19.2H25.5424C24.2232 22.9256 20.6784 25.6 16.5 25.6C11.1984 25.6 6.9 21.3016 6.9 16C6.9 10.6984 11.1984 6.4 16.5 6.4C18.8794 6.4 21.05 7.27274 22.7266 8.70718C22.8071 8.77604 22.9273 8.7727 23.0022 8.6978L27.2479 4.45209C27.328 4.37203 27.3258 4.24146 27.242 4.16533C24.4015 1.58485 20.6399 0 16.5 0C7.664 0 0.5 7.164 0.5 16C0.5 24.836 7.664 32 16.5 32C25.336 32 32.5 24.836 32.5 16C32.5 14.9838 32.4009 13.931 32.2198 12.9613Z" fill="white"/>
</svg>
