<svg width="41" height="43" viewBox="0 0 41 43" fill="none" xmlns="http://www.w3.org/2000/svg">
<path d="M31.9878 0.750532C31.7524 0.746849 31.5244 0.830889 31.3466 0.984909L23.9622 7.37662C23.2908 7.95855 23.702 9.06177 24.5903 9.06211H26.6029C26.6029 9.11401 26.5841 9.15988 26.5841 9.21211V18.5241C26.0504 18.2107 25.4347 18.0299 24.7748 18.0299H21.4523C19.3687 18.0299 17.7231 19.8246 17.7231 21.944V26.1928C17.1873 25.8868 16.571 25.71 15.9137 25.71H12.5903C10.5272 25.71 8.86105 27.437 8.86105 29.5143V32.9164C8.32634 32.608 7.7106 32.4299 7.05266 32.4299H3.72926C1.65943 32.4299 0 34.179 0 36.27V42.0299C0 42.5599 0.429908 42.9898 0.959914 42.9898H36.4045C36.9345 42.9898 37.3644 42.5599 37.3644 42.0299V9.21158C37.3644 9.15901 37.3473 9.11348 37.3456 9.06158H39.3582C40.2465 9.06124 40.6576 7.95766 39.9863 7.37609L32.6019 0.984377C32.4308 0.836049 32.2131 0.753351 31.9868 0.75L31.9878 0.750532ZM31.9751 2.97979L36.7835 7.14225H36.2685C35.6431 7.14225 35.1844 7.73086 35.3377 8.33753C35.4071 8.61208 35.4456 8.90572 35.4456 9.21208V41.0704H28.5047V9.21208C28.5047 8.90572 28.5442 8.61241 28.6135 8.33753C28.7668 7.73084 28.3081 7.14225 27.6827 7.14225H27.1671L31.9751 2.97979ZM21.4528 19.9504H24.7753C25.7596 19.9504 26.5846 20.7911 26.5846 21.9446V41.0709H19.6435V21.9446C19.6435 20.7911 20.4681 19.9504 21.4528 19.9504ZM12.5908 27.6305H15.9142C16.919 27.6305 17.7235 28.4408 17.7235 29.5149V41.0709H10.7814V29.5149C10.7814 28.4408 11.5856 27.6305 12.5907 27.6305H12.5908ZM3.72966 34.3504H7.05306C8.0512 34.3504 8.86146 35.1703 8.86146 36.2702V41.0702H1.92032V36.2702C1.92032 35.17 2.73125 34.3504 3.72966 34.3504Z" fill="#28293E"/>
</svg>
