<svg width="40" height="36" viewBox="0 0 40 36" fill="none" xmlns="http://www.w3.org/2000/svg">
<path fill-rule="evenodd" clip-rule="evenodd" d="M20.4245 8.63638L17.9354 5.94306C17.8675 5.86957 17.7977 5.79698 17.7261 5.72536C14.7672 2.7665 9.83388 2.74811 6.70621 5.87578C3.57854 9.00345 3.59693 13.9368 6.55579 16.8957L20.3685 30.7084C20.5598 30.8997 20.8701 30.8997 21.0615 30.7084L34.5727 17.1971C37.2384 14.5314 37.3156 9.67104 33.9716 6.32704C30.6276 2.98305 25.7679 3.05966 23.1022 5.72536C23.0339 5.79366 22.9675 5.86298 22.9031 5.93327L20.4245 8.63638ZM21.0615 35.4827C20.8701 35.6741 20.5598 35.6741 20.3685 35.4827L4.1686 19.2829C-0.151327 14.9629 -0.0839797 7.8916 4.31902 3.48859C8.38422 -0.576602 14.724 -0.945901 19.0728 2.42132C19.4342 2.70113 19.7819 3.00674 20.1133 3.33817C20.2786 3.50345 20.5497 3.50345 20.715 3.33817C21.0062 3.04697 21.3114 2.77751 21.6287 2.52972C25.8384 -0.757114 32.1872 -0.231727 36.3588 3.93986C40.8449 8.42594 41.1143 15.4299 36.9605 19.5837L21.0615 35.4827Z" fill="#2A2A3E"/>
</svg>
