<svg width="18" height="15" viewBox="0 0 18 15" fill="none" xmlns="http://www.w3.org/2000/svg">
<path d="M5.66262 15C12.4534 15 16.1687 9.22846 16.1687 4.22492C16.1687 4.06266 16.1652 3.8968 16.1582 3.73455C16.8809 3.19849 17.5046 2.53451 18 1.7738C17.3269 2.08095 16.6122 2.28154 15.8804 2.36873C16.651 1.89504 17.2279 1.15088 17.5043 0.27422C16.7794 0.714812 15.9867 1.02561 15.1601 1.1933C14.6031 0.586358 13.8667 0.184492 13.0648 0.0498316C12.2628 -0.0848291 11.4399 0.0552155 10.7233 0.448313C10.0067 0.841411 9.43635 1.46567 9.10039 2.22457C8.76442 2.98347 8.68157 3.83474 8.86465 4.64678C7.39687 4.57123 5.96095 4.18018 4.64999 3.49897C3.33902 2.81776 2.18227 1.8616 1.25473 0.692474C0.7833 1.52608 0.639042 2.51251 0.851273 3.45128C1.0635 4.39005 1.6163 5.21072 2.3973 5.74649C1.81097 5.7274 1.23748 5.5655 0.724219 5.27416V5.32103C0.723693 6.19584 1.01857 7.04383 1.55873 7.72087C2.09889 8.39791 2.85099 8.86221 3.68719 9.03483C3.14404 9.18725 2.57399 9.20945 2.02113 9.09974C2.25709 9.85207 2.71618 10.5101 3.33433 10.982C3.95248 11.4538 4.69884 11.716 5.46926 11.7318C4.16132 12.7856 2.54563 13.3571 0.882422 13.3544C0.587465 13.3539 0.292799 13.3354 0 13.2989C1.68964 14.4106 3.65515 15.0011 5.66262 15Z" fill="#EF6D58"/>
</svg>
